<?xml version="1.0" encoding="utf-8"?>
<!-- Generator: Adobe Illustrator 19.2.0, SVG Export Plug-In . SVG Version: 6.00 Build 0)  -->
<svg version="1.1" id="Laag_1" xmlns="http://www.w3.org/2000/svg" xmlns:xlink="http://www.w3.org/1999/xlink" height="30px" x="0px" y="0px"
	 viewBox="0 0 412 164.8" style="enable-background:new 0 0 412 164.8;" xml:space="preserve">
<style type="text/css">
	.st0{fill:#E04040;}
	.st1{fill:#F9F9F9;}
</style>
<g>
	<path class="st0" d="M186.8,0c2.8,2.8,2.1,5.2-0.5,7.7c-5.7,5.6-11.3,11.3-16.9,17c-1.1,1.1-2.7,2-3.2,4.5c4.8,0.6,9.5,1,14.2,1.7
		c6.6,0.9,13.2,1.5,19.7,3c14.8,3.5,23.7,15.1,23.7,30.3c0,21-0.7,42,0.2,62.9c0.8,19.8-15.1,31.1-29.6,32.8
		c-13.4,1.5-26.7,3.6-40.2,4.1c-0.8,0-1.7,0.1-2.2,0.9c-15.7,0-31.3,0-47,0c-0.6-1-1.7-0.9-2.6-1c-13.1-0.6-26.2-2.4-39.2-4.1
		c-18-2.4-28.4-14.3-28.4-32.4c0-21.8,0.2-43.6-0.1-65.4c-0.1-8.3,3.2-14.7,9-20.3c7.2-6.9,16.2-8.7,25.6-9.8
		c7.7-0.9,15.4-1.9,24.2-2.9c-7.7-7.6-14.4-14.4-21.3-21.1c-2.6-2.5-3.3-4.9-0.8-7.8c1.2,0,2.4,0,3.6,0c8.5,8.5,17,16.9,25.3,25.5
		c2.2,2.2,3.7,2.9,4.7-0.7c0.9-3.3,3.1-4.1,6.4-4c11.8,0.2,23.6,0.2,35.4,0c3.2,0,5.5,0.4,6.4,3.9c0.9,3.3,2.3,3.3,4.6,0.9
		c8.3-8.6,16.9-17,25.3-25.5C184.4,0,185.6,0,186.8,0z M50.8,96c0,7.7,0,15.3,0,23c0,14.8,7.4,23.6,22,25.9
		c10.4,1.7,20.8,2.7,31.3,3.3c27.7,1.7,55.3,0.9,82.7-3.5c13.2-2.1,20.9-11.7,20.9-25.1c0-16.2-0.1-32.3,0-48.5
		c0.1-8-3.3-14.1-9.7-18.7c-4.6-3.3-9.8-4.8-15.4-5.5c-22.2-2.9-44.4-4.1-66.8-3.4c-14.8,0.5-29.6,1.5-44.2,4.2
		c-14.1,2.5-21,11.2-21,25.3C50.8,80.7,50.8,88.4,50.8,96z"/>
	<path class="st1" d="M0,66.8c12.9-1.1,12.9-1.1,12.9,11.5c0,11.5,0.1,23-0.1,34.5c-0.1,3.3,0.9,4.5,4.2,4.1c2-0.2,4,0.2,6-0.1
		c4.4-0.6,5.9,0.9,5.9,5.6c0.1,5-1.6,6-6.2,5.9c-7.5-0.1-15.1-0.9-22.7,0.5C0,108.2,0,87.5,0,66.8z"/>
	<path class="st0" d="M412,72.8c-4.5,0-9,0.3-13.5-0.1c-4.6-0.4-6,1.4-5.4,5.7c0,0.2,0,0.3,0,0.5c0.1,4.8-1.5,10.8,0.8,14.1
		c2.3,3.3,8.7,0.7,13.3,1.1c2.1,0.2,4,0.2,4.1,3.1c0.1,2.9-1.7,3.2-3.9,3.2c-0.7,0-1.3,0-2,0c-12.3,0.1-12.3,0.1-12.3,12.6
		c0,8.9,0,8.8,9,9c3.3,0,6.7-0.8,9.8,0.9c0,1.7,0,3.3,0,5c-7.3,0.1-14.6,0.2-21.9,0.3c-2.3,0-3.2-0.9-3.2-3.3c0-18.5,0-36.9,0-55.4
		c0-1.1,0-2.7,1.5-2.7c7.9,0.1,15.8-1.5,23.6,1C412,69.5,412,71.2,412,72.8z"/>
	<path class="st1" d="M244.7,98.2c0,8.4-0.2,16.8,0.1,25.2c0.2,4.2-1.2,5.8-5.3,5.2c-1.5-0.2-3-0.1-4.5,0c-2.4,0.2-3.2-0.8-3.2-3.1
		c0.1-18.6,0.1-37.3,0-55.9c0-2.2,0.5-3.2,3-3.4c9.9-0.8,9.9-0.9,9.9,9c0,7,0,14.1,0,21.1c0.4,0.1,0.7,0.1,1.1,0.2
		c4.1-8.3,8.5-16.4,12.2-24.8c1.9-4.2,4.3-5.8,8.7-5.2c2.3,0.3,4.6,0.1,7.9,0.1c-3.5,6.6-6,12.9-9.8,18.3c-6.2,8.5-6.2,16.1,0,24.6
		c3.7,5.1,6,11.1,8.9,16.7c0.1,0.3,0.1,0.6,0.1,1.6c-3.8,0-7.5-0.1-11.2,0c-2.5,0.1-2.9-1.9-3.7-3.4c-4.4-8.7-8.8-17.5-13.1-26.3
		C245.5,98.1,245.1,98.2,244.7,98.2z"/>
	<path class="st0" d="M357.5,113.5c1.5-4.9,3-9.6,4.5-14.2c2.9-9.4,5.8-18.8,8.6-28.2c0.2-0.8,0.5-1.6,0.7-2.4c0.8-2.7,3.1-2.3,5-2
		c2.8,0.5,1.4,2.5,1,3.9c-4.6,15-9.2,29.9-13.9,44.8c-1,3.3-2.2,6.6-3.1,10c-0.5,1.8-1.3,2.9-3.4,2.9c-2.1,0-2.9-1.2-3.4-2.9
		c-5.7-18.5-11.4-36.9-17-55.4c-0.4-1.1-1.2-2.8,0.8-3.2c1.9-0.4,4.1-1,5.2,1.5c0.6,1.4,1,2.8,1.4,4.3c3.8,12.2,7.5,24.5,11.3,36.7
		C355.6,110.7,355.5,112.4,357.5,113.5z"/>
	<path class="st0" d="M285.1,97.8c0-8.5-0.1-17,0.1-25.5c0-2.3-1.5-5.7,3.2-5.8c5-0.1,3.4,3.6,3.4,6c0.1,14.8,0.2,29.7,0,44.5
		c0,3.7,1,5.1,4.8,4.8c3.5-0.3,7,0,10.5-0.1c2.2,0,2.9,0.9,2.9,3c0,2.1-0.2,3.6-2.9,3.6c-6.2-0.1-12.3-0.1-18.5,0
		c-3,0.1-3.5-1.5-3.5-4.1C285.2,115.5,285.1,106.7,285.1,97.8z"/>
	<path class="st0" d="M326.1,97.4c0,8.8,0,17.6,0,26.5c0,2.2,0.2,4.3-3.1,4.3c-3.3,0-3.2-2.1-3.2-4.3c0-17.6,0-35.3,0-52.9
		c0-2.2-0.2-4.3,3.2-4.3c3.4,0,3.2,2.1,3.2,4.3C326.1,79.7,326.1,88.5,326.1,97.4z"/>
	<path class="st1" d="M124.4,96.9c0.1,18-13.9,32.5-31.5,32.6c-17.5,0.1-31.6-14-31.7-31.7C61,79.3,74.8,65.1,92.9,65.2
		C110.1,65.4,124.3,79.7,124.4,96.9z M111.2,97.5c0.2-10.7-7.7-19.1-18-19.3c-10.4-0.2-18.8,7.9-19.1,18.3
		c-0.3,10.5,8.6,20.1,18.8,20.1C102.9,116.7,111,108.2,111.2,97.5z"/>
	<path class="st1" d="M133.9,96.9c0.1-17.9,14-31.7,31.7-31.6c17.4,0.1,31.6,14.6,31.5,32.1c-0.1,18-14.4,32.4-31.9,32.2
		C147.3,129.3,133.8,115.2,133.9,96.9z M184.1,97.2c0.1-10.5-8.2-19-18.4-19c-10.4,0-18.7,8.2-18.7,18.7
		c-0.1,10.4,8.6,19.6,18.5,19.7C175.6,116.8,183.9,108.1,184.1,97.2z"/>
</g>
</svg>
