<svg id="Laag_1" xmlns="http://www.w3.org/2000/svg" height="30" viewBox="0 0 412 164.8"><style>.st0{fill:#e04040}.st1{fill:#f9f9f9}</style><path class="st0" d="M186.8 0c2.8 2.8 2.1 5.2-.5 7.7-5.7 5.6-11.3 11.3-16.9 17-1.1 1.1-2.7 2-3.2 4.5 4.8.6 9.5 1 14.2 1.7 6.6.9 13.2 1.5 19.7 3 14.8 3.5 23.7 15.1 23.7 30.3 0 21-.7 42 .2 62.9.8 19.8-15.1 31.1-29.6 32.8-13.4 1.5-26.7 3.6-40.2 4.1-.8 0-1.7.1-2.2.9h-47c-.6-1-1.7-.9-2.6-1-13.1-.6-26.2-2.4-39.2-4.1-18-2.4-28.4-14.3-28.4-32.4 0-21.8.2-43.6-.1-65.4-.1-8.3 3.2-14.7 9-20.3 7.2-6.9 16.2-8.7 25.6-9.8C77 31 84.7 30 93.5 29c-7.7-7.6-14.4-14.4-21.3-21.1-2.6-2.5-3.3-4.9-.8-7.8H75c8.5 8.5 17 16.9 25.3 25.5 2.2 2.2 3.7 2.9 4.7-.7.9-3.3 3.1-4.1 6.4-4 11.8.2 23.6.2 35.4 0 3.2 0 5.5.4 6.4 3.9.9 3.3 2.3 3.3 4.6.9 8.3-8.6 16.9-17 25.3-25.5 1.3-.2 2.5-.2 3.7-.2zm-136 96v23c0 14.8 7.4 23.6 22 25.9 10.4 1.7 20.8 2.7 31.3 3.3 27.7 1.7 55.3.9 82.7-3.5 13.2-2.1 20.9-11.7 20.9-25.1 0-16.2-.1-32.3 0-48.5.1-8-3.3-14.1-9.7-18.7-4.6-3.3-9.8-4.8-15.4-5.5-22.2-2.9-44.4-4.1-66.8-3.4-14.8.5-29.6 1.5-44.2 4.2-14.1 2.5-21 11.2-21 25.3.2 7.7.2 15.4.2 23z"/><path class="st1" d="M0 66.8c12.9-1.1 12.9-1.1 12.9 11.5 0 11.5.1 23-.1 34.5-.1 3.3.9 4.5 4.2 4.1 2-.2 4 .2 6-.1 4.4-.6 5.9.9 5.9 5.6.1 5-1.6 6-6.2 5.9-7.5-.1-15.1-.9-22.7.5v-62z"/><path class="st0" d="M412 72.8c-4.5 0-9 .3-13.5-.1-4.6-.4-6 1.4-5.4 5.7v.5c.1 4.8-1.5 10.8.8 14.1 2.3 3.3 8.7.7 13.3 1.1 2.1.2 4 .2 4.1 3.1.1 2.9-1.7 3.2-3.9 3.2h-2c-12.3.1-12.3.1-12.3 12.6 0 8.9 0 8.8 9 9 3.3 0 6.7-.8 9.8.9v5l-21.9.3c-2.3 0-3.2-.9-3.2-3.3V69.5c0-1.1 0-2.7 1.5-2.7 7.9.1 15.8-1.5 23.6 1 .1 1.7.1 3.4.1 5z"/><path class="st1" d="M244.7 98.2c0 8.4-.2 16.8.1 25.2.2 4.2-1.2 5.8-5.3 5.2-1.5-.2-3-.1-4.5 0-2.4.2-3.2-.8-3.2-3.1.1-18.6.1-37.3 0-55.9 0-2.2.5-3.2 3-3.4 9.9-.8 9.9-.9 9.9 9v21.1c.4.1.7.1 1.1.2 4.1-8.3 8.5-16.4 12.2-24.8 1.9-4.2 4.3-5.8 8.7-5.2 2.3.3 4.6.1 7.9.1-3.5 6.6-6 12.9-9.8 18.3-6.2 8.5-6.2 16.1 0 24.6 3.7 5.1 6 11.1 8.9 16.7.1.3.1.6.1 1.6-3.8 0-7.5-.1-11.2 0-2.5.1-2.9-1.9-3.7-3.4a2146 2146 0 0 1-13.1-26.3c-.3 0-.7.1-1.1.1z"/><path class="st0" d="M357.5 113.5c1.5-4.9 3-9.6 4.5-14.2 2.9-9.4 5.8-18.8 8.6-28.2.2-.8.5-1.6.7-2.4.8-2.7 3.1-2.3 5-2 2.8.5 1.4 2.5 1 3.9-4.6 15-9.2 29.9-13.9 44.8-1 3.3-2.2 6.6-3.1 10-.5 1.8-1.3 2.9-3.4 2.9-2.1 0-2.9-1.2-3.4-2.9-5.7-18.5-11.4-36.9-17-55.4-.4-1.1-1.2-2.8.8-3.2 1.9-.4 4.1-1 5.2 1.5.6 1.4 1 2.8 1.4 4.3 3.8 12.2 7.5 24.5 11.3 36.7.4 1.4.3 3.1 2.3 4.2zM285.1 97.8c0-8.5-.1-17 .1-25.5 0-2.3-1.5-5.7 3.2-5.8 5-.1 3.4 3.6 3.4 6 .1 14.8.2 29.7 0 44.5 0 3.7 1 5.1 4.8 4.8 3.5-.3 7 0 10.5-.1 2.2 0 2.9.9 2.9 3s-.2 3.6-2.9 3.6c-6.2-.1-12.3-.1-18.5 0-3 .1-3.5-1.5-3.5-4.1.1-8.7 0-17.5 0-26.4zM326.1 97.4v26.5c0 2.2.2 4.3-3.1 4.3-3.3 0-3.2-2.1-3.2-4.3V71c0-2.2-.2-4.3 3.2-4.3 3.4 0 3.2 2.1 3.2 4.3-.1 8.7-.1 17.5-.1 26.4z"/><path class="st1" d="M124.4 96.9c.1 18-13.9 32.5-31.5 32.6-17.5.1-31.6-14-31.7-31.7-.2-18.5 13.6-32.7 31.7-32.6 17.2.2 31.4 14.5 31.5 31.7zm-13.2.6c.2-10.7-7.7-19.1-18-19.3-10.4-.2-18.8 7.9-19.1 18.3-.3 10.5 8.6 20.1 18.8 20.1 10 .1 18.1-8.4 18.3-19.1zM133.9 96.9c.1-17.9 14-31.7 31.7-31.6 17.4.1 31.6 14.6 31.5 32.1-.1 18-14.4 32.4-31.9 32.2-17.9-.3-31.4-14.4-31.3-32.7zm50.2.3c.1-10.5-8.2-19-18.4-19-10.4 0-18.7 8.2-18.7 18.7-.1 10.4 8.6 19.6 18.5 19.7 10.1.2 18.4-8.5 18.6-19.4z"/></svg>