<?xml version="1.0" encoding="utf-8"?>
<!-- Generator: Adobe Illustrator 16.0.0, SVG Export Plug-In . SVG Version: 6.00 Build 0)  -->
<!DOCTYPE svg PUBLIC "-//W3C//DTD SVG 1.1//EN" "http://www.w3.org/Graphics/SVG/1.1/DTD/svg11.dtd">
<svg version="1.1" id="Layer_1" xmlns="http://www.w3.org/2000/svg" xmlns:xlink="http://www.w3.org/1999/xlink" x="0px" y="0px"
	 width="50px" height="50px" viewBox="0 0 50 50" enable-background="new 0 0 50 50" xml:space="preserve">
<g id="_x38_lXfvG_1_">
	<g>
		<path d="M4.481,39.104c0-0.134,0-0.268,0-0.4c0.029-0.142,0.067-0.281,0.084-0.425c0.121-1.073,0.238-2.146,0.357-3.22
			c0.202-1.815,0.404-3.631,0.605-5.446c0.199-1.789,0.396-3.577,0.594-5.367c0.23-2.08,0.459-4.161,0.69-6.241
			c0.073-0.657,0.155-1.312,0.231-1.966c11.996,0,23.943,0,35.893,0c0.025,0.122,0.055,0.225,0.067,0.329
			c0.222,2.002,0.444,4.004,0.664,6.005c0.249,2.267,0.494,4.534,0.745,6.801c0.287,2.598,0.574,5.195,0.868,7.792
			c0.065,0.581,0.157,1.159,0.237,1.738c0,0.133,0,0.267,0,0.4c-2.176,0.316-4.352,0.635-6.527,0.947
			c-3.35,0.48-6.7,0.958-10.051,1.436c-0.455,0.064-0.912,0.119-1.386,0.182c-0.842-4.208-1.675-8.371-2.507-12.533
			c-0.033,0.003-0.065,0.006-0.098,0.008c-0.835,4.169-1.668,8.338-2.507,12.532c-0.715-0.102-1.386-0.195-2.056-0.291
			c-2.691-0.387-5.381-0.773-8.071-1.159C9.704,39.851,7.093,39.478,4.481,39.104z"/>
		<path fill-rule="evenodd" clip-rule="evenodd" d="M42.951,13.439c-11.979,0-23.912,0-35.903,0c0-0.544-0.008-1.085,0.002-1.626
			c0.009-0.493-0.029-0.998,0.068-1.475c0.253-1.235,1.255-2.01,2.533-2.01c8.465-0.003,16.929-0.001,25.394-0.001
			c1.763,0,3.524,0,5.287-0.003c1.494-0.002,2.615,1.105,2.619,2.59C42.953,11.742,42.951,12.568,42.951,13.439z"/>
	</g>
</g>
</svg>
