<?xml version="1.0" encoding="utf-8"?>
<!-- Generator: Adobe Illustrator 16.0.0, SVG Export Plug-In . SVG Version: 6.00 Build 0)  -->
<!DOCTYPE svg PUBLIC "-//W3C//DTD SVG 1.1//EN" "http://www.w3.org/Graphics/SVG/1.1/DTD/svg11.dtd">
<svg version="1.1" id="Layer_1" xmlns:sketch="http://www.bohemiancoding.com/sketch/ns"
	 xmlns="http://www.w3.org/2000/svg" xmlns:xlink="http://www.w3.org/1999/xlink" x="0px" y="0px" width="572px" height="499px"
	 viewBox="0 0 572 499" enable-background="new 0 0 572 499" xml:space="preserve">
<title>discover</title>
<desc>Created with Sketch.</desc>
<g id="Page-1" sketch:type="MSPage">
	<g id="discover" transform="translate(1.000000, 1.000000)" sketch:type="MSLayerGroup">
		<path id="Shape" sketch:type="MSShapeGroup" fill="#FFFFFF" d="M491.973,100.396c-33.082-5.291-66.163-9.259-99.906-11.904
			l69.471-69.44c1.985-1.984,3.309-5.291,3.309-7.936c0-2.645-1.323-5.952-3.309-7.936c-4.631-4.629-11.247-4.629-15.879,0
			l-82.703,82.667l-10.586-23.147h-67.486h-67.486l-10.586,23.147L124.107,3.18c-1.985-1.984-5.293-3.307-7.939-3.307
			s-5.955,1.322-7.939,3.307c-4.631,4.629-4.631,11.242,0,15.872l69.471,69.44c-33.081,2.646-66.824,6.614-99.906,11.904
			c-43.667,7.274-78.072,44.971-78.072,80.021v220.224c0,35.051,34.404,72.747,78.072,80.021
			c136.957,21.824,277.884,21.824,414.841,0c43.667-7.274,78.072-44.971,78.072-80.021V180.417
			C570.706,145.366,535.64,107.67,491.973,100.396L491.973,100.396z"/>
		<g id="Group" transform="translate(81.762894, 197.611447)" sketch:type="MSShapeGroup">
			<path id="Shape_1_" fill="#FFFFFF" d="M-1.985,95.893c0-27.114,9.263-49.6,27.789-68.117C44.329,9.259,66.825,0,93.951,0
				c12.571,0,23.819,2.646,35.728,7.275c11.248,4.629,21.834,11.243,30.435,20.501c9.263,9.258,16.541,19.178,21.172,31.083
				c4.631,11.903,7.278,23.808,7.278,36.373c0,13.227-1.985,25.131-6.616,37.034c-4.631,11.904-11.248,21.824-19.849,31.083
				c-9.263,9.259-19.188,16.533-31.097,21.824c-11.909,5.29-23.818,7.274-37.051,7.274c-13.894,0-26.465-2.646-37.712-7.274
				c-11.91-4.63-21.834-11.904-31.097-21.824c-8.601-9.259-15.217-19.179-19.187-31.083C0.661,121.024-1.985,109.12-1.985,95.893
				L-1.985,95.893z M93.951,37.696c-16.541,0-29.773,5.291-41.021,16.533C41.682,65.473,36.389,79.36,36.389,95.232
				s5.955,29.76,17.202,41.664c11.248,11.903,25.142,17.855,40.359,17.855c15.879,0,29.773-5.952,40.359-17.194
				c11.248-11.243,16.541-25.792,16.541-42.987c0-15.871-5.293-29.098-16.541-40.341C122.401,43.648,109.169,37.696,93.951,37.696
				L93.951,37.696z"/>
			<path id="Shape_2_" fill="#FFFFFF" d="M218.337,95.893c0-27.114,9.264-49.6,27.789-68.117C264.651,9.259,287.146,0,314.273,0
				c12.571,0,23.818,2.646,35.728,7.275c11.248,4.629,21.834,11.243,30.436,20.501c9.263,9.258,16.54,19.178,21.172,31.083
				c4.631,11.903,7.277,23.808,7.277,36.373c0,13.227-1.984,25.131-6.616,37.034c-4.631,11.904-11.247,21.824-19.849,31.083
				c-9.263,9.259-19.188,16.533-31.097,21.824c-11.909,5.29-23.818,7.274-37.051,7.274c-13.894,0-26.465-2.646-37.713-7.274
				c-11.247-4.63-21.833-11.904-31.097-21.824c-8.602-9.259-15.217-19.179-19.188-31.083
				C220.322,121.024,218.337,109.12,218.337,95.893L218.337,95.893z M313.612,37.696c-16.541,0-29.773,5.291-41.021,16.533
				C261.343,65.473,256.05,79.36,256.05,95.232s5.955,29.76,17.203,41.664c11.247,11.903,25.142,17.855,40.359,17.855
				c15.879,0,29.772-5.952,40.358-17.194c11.248-11.243,16.541-25.792,16.541-42.987c0-15.871-5.293-29.098-16.541-40.341
				C342.723,43.648,329.491,37.696,313.612,37.696L313.612,37.696z"/>
		</g>
	</g>
</g>
</svg>
