<?xml version="1.0" encoding="UTF-8" standalone="no"?>
<svg width="460px" height="500px" viewBox="0 0 460 500" version="1.1" xmlns="http://www.w3.org/2000/svg" xmlns:xlink="http://www.w3.org/1999/xlink" xmlns:sketch="http://www.bohemiancoding.com/sketch/ns">
    <!-- Generator: Sketch 3.0.4 (8054) - http://www.bohemiancoding.com/sketch -->
    <title>following</title>
    <desc>Created with Sketch.</desc>
    <defs></defs>
    <g id="Page-1" stroke="none" stroke-width="1" fill="none" fill-rule="evenodd" sketch:type="MSPage">
        <g id="following" sketch:type="MSLayerGroup" transform="translate(1.000000, 0.000000)" fill="#000000">
            <path d="M331.166667,250 C331.166667,192.470339 284.529661,145.833333 227,145.833333 C169.470339,145.833333 122.833333,192.470339 122.833333,250 C122.833333,307.529661 169.470339,354.166667 227,354.166667 C284.529661,354.166667 331.166667,307.529661 331.166667,250 Z M164.5,250 C164.5,215.482203 192.482203,187.5 227,187.5 C261.517797,187.5 289.5,215.482203 289.5,250 C289.5,284.517797 261.517797,312.5 227,312.5 C192.482203,312.5 164.5,284.517797 164.5,250 Z" id="Oval-12" sketch:type="MSShapeGroup"></path>
            <path d="M289.5,62.5 C289.5,27.9822031 261.517797,0 227,0 C192.482203,0 164.5,27.9822031 164.5,62.5 C164.5,97.0177969 192.482203,125 227,125 C261.517797,125 289.5,97.0177969 289.5,62.5 Z M206.166667,62.5 C206.166667,50.9940677 215.494068,41.6666667 227,41.6666667 C238.505932,41.6666667 247.833333,50.9940677 247.833333,62.5 C247.833333,74.0059323 238.505932,83.3333333 227,83.3333333 C215.494068,83.3333333 206.166667,74.0059323 206.166667,62.5 Z" id="Oval-13" sketch:type="MSShapeGroup"></path>
            <path d="M289.5,437.5 C289.5,402.982203 261.517797,375 227,375 C192.482203,375 164.5,402.982203 164.5,437.5 C164.5,472.017797 192.482203,500 227,500 C261.517797,500 289.5,472.017797 289.5,437.5 Z M206.166667,437.5 C206.166667,425.994068 215.494068,416.666667 227,416.666667 C238.505932,416.666667 247.833333,425.994068 247.833333,437.5 C247.833333,449.005932 238.505932,458.333333 227,458.333333 C215.494068,458.333333 206.166667,449.005932 206.166667,437.5 Z" id="Oval-14" sketch:type="MSShapeGroup"></path>
            <path d="M426.959921,202.003175 C456.85321,184.744277 467.095407,146.519877 449.836509,116.626588 C432.57761,86.7332988 394.35321,76.4911016 364.459921,93.75 C334.566632,111.008898 324.324435,149.233299 341.583333,179.126588 C358.842232,209.019877 397.066632,219.262074 426.959921,202.003175 Z M385.293254,129.834392 C395.257684,124.081426 407.999151,127.495491 413.752117,137.459921 C419.505083,147.424351 416.091017,160.165818 406.126588,165.918784 C396.162158,171.67175 383.420691,168.257684 377.667725,158.293254 C371.914759,148.328825 375.328825,135.587358 385.293254,129.834392 Z" id="Oval-16" sketch:type="MSShapeGroup"></path>
            <path d="M93.6265877,410.336509 C123.519877,393.07761 133.762074,354.85321 116.503175,324.959921 C99.244277,295.066632 61.0198767,284.824435 31.1265877,302.083333 C1.23329877,319.342232 -9.00889843,357.566632 8.25,387.459921 C25.5088984,417.35321 63.7332988,427.595407 93.6265877,410.336509 Z M51.9599211,338.167725 C61.9243507,332.414759 74.6658175,335.828825 80.4187836,345.793254 C86.1717498,355.757684 82.7576841,368.499151 72.7932544,374.252117 C62.8288247,380.005083 50.087358,376.591017 44.3343918,366.626588 C38.5814257,356.662158 41.9954914,343.920691 51.9599211,338.167725 Z" id="Oval-15" sketch:type="MSShapeGroup"></path>
            <path d="M364.459921,410.336509 C394.35321,427.595407 432.57761,417.35321 449.836509,387.459921 C467.095407,357.566632 456.85321,319.342232 426.959921,302.083333 C397.066632,284.824435 358.842232,295.066632 341.583333,324.959921 C324.324435,354.85321 334.566632,393.07761 364.459921,410.336509 Z M406.126588,338.167725 C416.091017,343.920691 419.505083,356.662158 413.752117,366.626588 C407.999151,376.591017 395.257684,380.005083 385.293254,374.252117 C375.328825,368.499151 371.914759,355.757684 377.667725,345.793254 C383.420691,335.828825 396.162158,332.414759 406.126588,338.167725 Z" id="Oval-16" sketch:type="MSShapeGroup"></path>
            <path d="M31.1265877,202.003175 C61.0198767,219.262074 99.244277,209.019877 116.503175,179.126588 C133.762074,149.233299 123.519877,111.008898 93.6265877,93.75 C63.7332988,76.4911016 25.5088984,86.7332988 8.25,116.626588 C-9.00889843,146.519877 1.23329877,184.744277 31.1265877,202.003175 Z M72.7932544,129.834392 C82.7576841,135.587358 86.1717498,148.328825 80.4187836,158.293254 C74.6658175,168.257684 61.9243507,171.67175 51.9599211,165.918784 C41.9954914,160.165818 38.5814257,147.424351 44.3343918,137.459921 C50.087358,127.495491 62.8288247,124.081426 72.7932544,129.834392 Z" id="Oval-15" sketch:type="MSShapeGroup"></path>
        </g>
    </g>
</svg>