<?xml version="1.0" encoding="utf-8"?>
<!-- Generator: Adobe Illustrator 16.0.0, SVG Export Plug-In . SVG Version: 6.00 Build 0)  -->
<!DOCTYPE svg PUBLIC "-//W3C//DTD SVG 1.1//EN" "http://www.w3.org/Graphics/SVG/1.1/DTD/svg11.dtd">
<svg version="1.1" id="Layer_1" xmlns:sketch="http://www.bohemiancoding.com/sketch/ns"
	 xmlns="http://www.w3.org/2000/svg" xmlns:xlink="http://www.w3.org/1999/xlink" x="0px" y="0px" width="460px" height="500px"
	 viewBox="0 0 460 500" enable-background="new 0 0 460 500" xml:space="preserve">
<title>following</title>
<desc>Created with Sketch.</desc>
<g id="Page-1" sketch:type="MSPage">
	<g id="following" transform="translate(1.000000, 0.000000)" sketch:type="MSLayerGroup">
		<path id="Oval-12" sketch:type="MSShapeGroup" fill="#FFFFFF" d="M331.166,250c0-57.53-46.637-104.167-104.166-104.167
			c-57.53,0-104.167,46.637-104.167,104.167c0,57.529,46.637,104.167,104.167,104.167C284.529,354.167,331.166,307.529,331.166,250z
			 M164.5,250c0-34.518,27.982-62.5,62.5-62.5s62.5,27.982,62.5,62.5s-27.982,62.5-62.5,62.5S164.5,284.518,164.5,250z"/>
		<path id="Oval-13" sketch:type="MSShapeGroup" fill="#FFFFFF" d="M289.5,62.5C289.5,27.982,261.518,0,227,0
			s-62.5,27.982-62.5,62.5S192.482,125,227,125S289.5,97.018,289.5,62.5z M206.167,62.5c0-11.506,9.328-20.833,20.833-20.833
			s20.834,9.328,20.834,20.833S238.506,83.333,227,83.333S206.167,74.006,206.167,62.5z"/>
		<path id="Oval-14" sketch:type="MSShapeGroup" fill="#FFFFFF" d="M289.5,437.5c0-34.518-27.982-62.5-62.5-62.5
			s-62.5,27.982-62.5,62.5S192.482,500,227,500S289.5,472.018,289.5,437.5z M206.167,437.5c0-11.506,9.328-20.833,20.833-20.833
			s20.834,9.327,20.834,20.833s-9.328,20.833-20.834,20.833S206.167,449.006,206.167,437.5z"/>
		<path id="Oval-16" sketch:type="MSShapeGroup" fill="#FFFFFF" d="M426.96,202.003c29.894-17.259,40.136-55.483,22.877-85.376
			c-17.259-29.893-55.483-40.135-85.377-22.876s-40.136,55.483-22.876,85.376C358.842,209.02,397.066,219.262,426.96,202.003z
			 M385.293,129.834c9.965-5.753,22.706-2.339,28.459,7.625s2.339,22.706-7.625,28.459c-9.965,5.753-22.706,2.339-28.459-7.625
			S375.329,135.587,385.293,129.834z"/>
		<path id="Oval-15" sketch:type="MSShapeGroup" fill="#FFFFFF" d="M93.626,410.337c29.894-17.26,40.136-55.483,22.876-85.377
			c-17.259-29.894-55.483-40.136-85.376-22.877C1.233,319.342-9.009,357.566,8.25,387.46S63.733,427.596,93.626,410.337z
			 M51.96,338.168c9.964-5.753,22.706-2.339,28.459,7.625c5.753,9.965,2.339,22.706-7.625,28.459
			c-9.965,5.753-22.706,2.339-28.459-7.625C38.582,356.662,41.996,343.921,51.96,338.168z"/>
		<path id="Oval-16_1_" sketch:type="MSShapeGroup" fill="#FFFFFF" d="M364.46,410.337c29.894,17.259,68.118,7.017,85.377-22.877
			s7.017-68.118-22.877-85.377s-68.118-7.017-85.376,22.877C324.324,354.854,334.566,393.077,364.46,410.337z M406.127,338.168
			c9.964,5.753,13.378,18.494,7.625,28.459c-5.753,9.964-18.494,13.378-28.459,7.625c-9.964-5.753-13.378-18.494-7.625-28.459
			C383.421,335.829,396.162,332.415,406.127,338.168z"/>
		<path id="Oval-15_1_" sketch:type="MSShapeGroup" fill="#FFFFFF" d="M31.126,202.003c29.894,17.259,68.118,7.017,85.376-22.876
			c17.259-29.893,7.017-68.118-22.876-85.376C63.733,76.491,25.509,86.733,8.25,116.626C-9.009,146.52,1.233,184.744,31.126,202.003
			z M72.793,129.834c9.964,5.753,13.378,18.495,7.625,28.459s-18.495,13.378-28.459,7.625s-13.378-18.495-7.625-28.459
			S62.829,124.082,72.793,129.834z"/>
	</g>
</g>
</svg>
