<?xml version="1.0" encoding="utf-8"?>
<!-- Generator: Adobe Illustrator 16.0.0, SVG Export Plug-In . SVG Version: 6.00 Build 0)  -->
<!DOCTYPE svg PUBLIC "-//W3C//DTD SVG 1.1//EN" "http://www.w3.org/Graphics/SVG/1.1/DTD/svg11.dtd">
<svg version="1.1" id="Layer_1" xmlns:sketch="http://www.bohemiancoding.com/sketch/ns"
	 xmlns="http://www.w3.org/2000/svg" xmlns:xlink="http://www.w3.org/1999/xlink" x="0px" y="0px" width="90px" height="90px"
	 viewBox="0 0 90 90" enable-background="new 0 0 90 90" xml:space="preserve">
<title>noun_79685_cc</title>
<desc>Created with Sketch.</desc>
<g id="Page-1" sketch:type="MSPage">
	<g id="noun_79685_cc" transform="translate(-1.000000, -1.000000)" sketch:type="MSLayerGroup">
		<path id="Shape" sketch:type="MSShapeGroup" fill="#FFFFFF" d="M76.325,1.011h1.903c1.099,0,0.979-0.088,0.979,1.009v1.679
			c0,0.705,0.577,1.283,1.283,1.283h5.238c0.705,0,1.282-0.577,1.282-1.283V1.766c0-0.804-0.104-0.754,0.705-0.754h2.542
			c0.829,0,0.73-0.055,0.73,0.771v86.894c0,2.697,0.097,2.302-2.586,2.302h-2.627h-0.029h-5.238h-0.033h-2.808
			c-2.374,0-2.332,0.383-2.332-2.009c0-0.157-0.015-0.308-0.046-0.448V86.99c0-2.149-1.758-3.907-3.907-3.907H20.593
			c-2.149,0-3.907,1.758-3.907,3.907v2.566v0.988c-0.044,0.477-0.281,0.432-1.336,0.432h-1.283c-1.46,0-1.261,0.07-1.261-1.384
			v-1.286c0-0.705-0.577-1.283-1.283-1.283H6.285c-0.705,0-1.283,0.578-1.283,1.283v0.883c0,1.555,0.401,1.787-1.193,1.787H2.453
			c-1.824,0-1.416-0.146-1.41-1.937c0.124-28.485-0.008-57.557-0.01-86.012c0-2.284-0.144-2.017,2.149-2.017h2.872
			c0.071,0.012,0.14,0.018,0.213,0.018h5.238c0.073,0,0.147-0.005,0.218-0.018h3.11c1.507,0,1.804-0.097,1.853,0.653v1.237v2.012
			c0,2.149,1.758,3.907,3.907,3.907h50.791c2.149,0,3.907-1.758,3.907-3.907v-2.47c0.031-0.188,0.046-0.388,0.046-0.607
			C75.336,0.839,75.338,1.011,76.325,1.011L76.325,1.011L76.325,1.011z M51.85,55.643c-0.054-6.857,0.039-13.664,0.027-20.557
			c1.112,0.752,2.354,1.498,3.538,2.127c0.634,0.336,1.212,0.638,1.778,0.924c1.576,0.795,3.111,1.478,4.779,2.274
			c0.354,0.168,0.713,0.332,1.034,0.39c0.58,0.105,0.58-0.615,0.593-1.349c0-2.56,0.025-4.792,0-7.354
			c-0.006-0.656-0.029-0.914-0.548-1.27c-1.51-0.863-3.021-1.727-4.53-2.591c-1.705-0.975-3.151-1.967-4.697-3.18
			c-1.51-1.182-3.016-2.364-4.525-3.547c-0.814-0.551-1.341-0.249-1.337,0.796c0.009,2.595,0.017,5.192,0.024,7.787l-0.049,24.21
			c-2.075-1.546-4.816-2.49-7.819-2.49c-6.474,0-11.724,4.369-11.724,9.758s5.25,9.758,11.724,9.758
			c4.349,0,8.296-1.876,10.171-4.901C52.213,63.322,51.871,58.486,51.85,55.643L51.85,55.643L51.85,55.643z M20.688,12.768
			c-2.202,0-4.002,1.8-4.002,4.003V75.21c0,2.202,1.806,4.003,4.002,4.003h50.646c2.197,0,4.003-1.806,4.003-4.003V16.77
			c0-2.197-1.801-4.003-4.003-4.003L20.688,12.768L20.688,12.768L20.688,12.768z M80.509,59.699c-0.704,0-1.282,0.576-1.282,1.283
			v5.237c0,0.706,0.576,1.283,1.282,1.283h5.238c0.705,0,1.282-0.577,1.282-1.283v-5.237c0-0.707-0.576-1.283-1.282-1.283H80.509
			L80.509,59.699z M80.555,75.316c-0.705,0-1.283,0.576-1.283,1.283v5.237c0,0.706,0.578,1.283,1.283,1.283h5.238
			c0.706,0,1.283-0.577,1.283-1.283V76.6c0-0.707-0.577-1.283-1.283-1.283H80.555L80.555,75.316z M80.491,28.457
			c-0.705,0-1.283,0.577-1.283,1.283v5.238c0,0.706,0.577,1.283,1.283,1.283h5.237c0.705,0,1.283-0.577,1.283-1.283V29.74
			c0-0.706-0.576-1.283-1.283-1.283H80.491L80.491,28.457z M80.536,44.074c-0.706,0-1.283,0.577-1.283,1.283v5.238
			c0,0.706,0.577,1.283,1.283,1.283h5.237c0.705,0,1.283-0.577,1.283-1.283v-5.238c0-0.706-0.576-1.283-1.283-1.283H80.536
			L80.536,44.074z M80.536,12.795c-0.706,0-1.283,0.577-1.283,1.283v5.238c0,0.705,0.577,1.283,1.283,1.283h5.237
			c0.705,0,1.283-0.577,1.283-1.283v-5.238c0-0.706-0.576-1.283-1.283-1.283H80.536L80.536,12.795z M6.285,55.746
			c-0.705,0-1.283,0.577-1.283,1.283v5.238c0,0.705,0.577,1.282,1.283,1.282h5.238c0.706,0,1.283-0.577,1.283-1.282v-5.238
			c0-0.706-0.577-1.283-1.283-1.283H6.285L6.285,55.746L6.285,55.746z M6.33,71.363c-0.705,0-1.283,0.576-1.283,1.283v5.237
			c0,0.706,0.577,1.283,1.283,1.283h5.238c0.705,0,1.283-0.577,1.283-1.283v-5.237c0-0.707-0.577-1.283-1.283-1.283H6.33
			L6.33,71.363z M6.266,24.504c-0.706,0-1.283,0.577-1.283,1.283v5.238c0,0.706,0.577,1.283,1.283,1.283h5.238
			c0.706,0,1.283-0.577,1.283-1.283v-5.238c0-0.706-0.577-1.283-1.283-1.283H6.266L6.266,24.504L6.266,24.504z M6.311,40.121
			c-0.705,0-1.283,0.577-1.283,1.283v5.239c0,0.705,0.577,1.282,1.283,1.282h5.238c0.706,0,1.283-0.577,1.283-1.282v-5.239
			c0-0.706-0.577-1.283-1.283-1.283H6.311L6.311,40.121z M6.311,8.843c-0.705,0-1.283,0.577-1.283,1.283v5.238
			c0,0.705,0.577,1.283,1.283,1.283h5.238c0.706,0,1.283-0.577,1.283-1.283v-5.238c0-0.706-0.577-1.283-1.283-1.283H6.311
			L6.311,8.843z"/>
	</g>
</g>
</svg>
