<?xml version="1.0" encoding="utf-8"?>
<!-- Generator: Adobe Illustrator 16.0.0, SVG Export Plug-In . SVG Version: 6.00 Build 0)  -->
<!DOCTYPE svg PUBLIC "-//W3C//DTD SVG 1.1//EN" "http://www.w3.org/Graphics/SVG/1.1/DTD/svg11.dtd">
<svg version="1.1" id="Layer_1" xmlns:sketch="http://www.bohemiancoding.com/sketch/ns"
	 xmlns="http://www.w3.org/2000/svg" xmlns:xlink="http://www.w3.org/1999/xlink" x="0px" y="0px" width="565px" height="502px"
	 viewBox="0 0 565 502" enable-background="new 0 0 565 502" xml:space="preserve">
<title>people</title>
<desc>Created with Sketch.</desc>
<g id="Page-1" sketch:type="MSPage">
	<g id="people" transform="translate(1.000000, -4.000000)" sketch:type="MSLayerGroup">
		<path id="Star-1" sketch:type="MSShapeGroup" fill="#FFFFFF" d="M281.199,396.11l-125.145,95.275
			c-36.676,27.923-55.835,14.719-42.792-29.493l43.991-149.115L25.476,231.562c-39.236-24.182-33.68-43.785,12.417-43.785h164.432
			l51.71-150.24c15.002-43.59,39.327-43.59,54.329,0l51.711,150.24h164.431c46.095,0,51.658,19.6,12.417,43.785l-131.777,81.215
			l43.991,149.115c13.043,44.211-6.117,57.415-42.792,29.493L281.199,396.11z M281.5,354.167c40.307,0,72.981-32.646,72.981-72.917
			s-32.675-72.917-72.981-72.917s-72.981,32.646-72.981,72.917S241.193,354.167,281.5,354.167z"/>
		<ellipse id="Oval-5" sketch:type="MSShapeGroup" fill="#FFFFFF" cx="281.5" cy="281.25" rx="31.277" ry="31.25">
		</ellipse>
	</g>
</g>
</svg>
