<?xml version="1.0" encoding="UTF-8" standalone="no"?>
<svg width="565px" height="502px" viewBox="0 0 565 502" version="1.1" xmlns="http://www.w3.org/2000/svg" xmlns:xlink="http://www.w3.org/1999/xlink" xmlns:sketch="http://www.bohemiancoding.com/sketch/ns">
    <!-- Generator: Sketch 3.0.4 (8054) - http://www.bohemiancoding.com/sketch -->
    <title>people</title>
    <desc>Created with Sketch.</desc>
    <defs></defs>
    <g id="Page-1" stroke="none" stroke-width="1" fill="none" fill-rule="evenodd" sketch:type="MSPage">
        <g id="people" sketch:type="MSLayerGroup" transform="translate(1.000000, -4.000000)" fill="#000000">
            <path d="M281.198866,396.110356 L156.053882,491.385878 C119.377758,519.308186 100.218754,506.104921 113.261842,461.892873 L157.252819,312.777023 L25.4757227,231.561798 C-13.7606334,207.380135 -8.20443006,187.777023 37.8926535,187.777023 L202.324109,187.777023 L254.033948,37.5366691 C269.036718,-6.05312995 293.360967,-6.05326578 308.363784,37.5366691 L360.073623,187.777023 L524.505079,187.777023 C570.599116,187.777023 576.163481,207.376982 536.922009,231.561798 L405.144913,312.777023 L449.13589,461.892873 C462.178623,506.103718 443.018746,519.307251 406.34385,491.385878 L281.198866,396.110356 Z M281.5,354.166667 C321.806559,354.166667 354.481481,321.520763 354.481481,281.25 C354.481481,240.979237 321.806559,208.333333 281.5,208.333333 C241.193441,208.333333 208.518519,240.979237 208.518519,281.25 C208.518519,321.520763 241.193441,354.166667 281.5,354.166667 Z" id="Star-1" sketch:type="MSShapeGroup"></path>
            <ellipse id="Oval-5" sketch:type="MSShapeGroup" cx="281.5" cy="281.25" rx="31.2777778" ry="31.25"></ellipse>
        </g>
    </g>
</svg>