<?xml version="1.0" encoding="utf-8"?>
<!-- Generator: Adobe Illustrator 16.0.0, SVG Export Plug-In . SVG Version: 6.00 Build 0)  -->
<!DOCTYPE svg PUBLIC "-//W3C//DTD SVG 1.1//EN" "http://www.w3.org/Graphics/SVG/1.1/DTD/svg11.dtd">
<svg version="1.1" id="Layer_1" xmlns:sketch="http://www.bohemiancoding.com/sketch/ns"
	 xmlns="http://www.w3.org/2000/svg" xmlns:xlink="http://www.w3.org/1999/xlink" x="0px" y="0px" width="601px" height="500px"
	 viewBox="0 0 601 500" enable-background="new 0 0 601 500" xml:space="preserve">
<title>shows</title>
<desc>Created with Sketch.</desc>
<g id="Page-1" sketch:type="MSPage">
	<g id="shows" transform="translate(1.000000, 0.000000)" sketch:type="MSLayerGroup">
		<circle id="Oval-3" sketch:type="MSShapeGroup" fill="#FFFFFF" cx="483.19" cy="112.5" r="37.5">
		</circle>
		<path id="Rectangle-2" sketch:type="MSShapeGroup" fill="#FFFFFF" d="M-0.426,49.95v325.1c0,27.587,22.381,49.95,49.996,49.95
			h500.009c27.611,0,49.995-22.363,49.995-49.95V49.95c0-27.587-22.381-49.95-49.995-49.95H49.57C21.958,0-0.426,22.363-0.426,49.95
			z M549.579,49.96l-0.005,325.09c0-0.007-500.004-0.01-500.004-0.01l0.004-325.09C49.574,49.957,549.579,49.96,549.579,49.96z"/>
		<path id="Rectangle-3" sketch:type="MSShapeGroup" fill="#FFFFFF" d="M249.574,461.298V400h125v55.944
			c67.421,13.252,150,44.056,150,44.056h-400C124.574,500,188.113,476.046,249.574,461.298L249.574,461.298z"/>
	</g>
</g>
</svg>
